<svg style="height: 512px; width: 512px;" xmlns="http://www.w3.org/2000/svg" viewBox="0 0 512 512"><defs><linearGradient x1="0" x2="0" y1="0" y2="1" id="delapouite-unbalanced-gradient-0"><stop offset="0%" stop-color="#ffffff" stop-opacity="1"></stop><stop offset="100%" stop-color="#cfe3ff" stop-opacity="1"></stop></linearGradient><linearGradient x1="0" x2="0" y1="0" y2="1" id="delapouite-unbalanced-gradient-1"><stop offset="0%" stop-color="#f5a623" stop-opacity="1"></stop><stop offset="100%" stop-color="#a5721f" stop-opacity="1"></stop></linearGradient></defs><circle cx="256" cy="256" r="246" fill="url(#delapouite-unbalanced-gradient-0)" stroke="#50e3c2" stroke-opacity="1" stroke-width="10"></circle><g class="" style="" transform="translate(0,-55)"><path d="M404.5 162.5c-26.1 0-47 20.9-47 47s20.9 47 47 47 47-20.9 47-47-20.9-47-47-47zm72.2 89.1l-447.99 176 6.58 16.8 448.01-176-6.6-16.8zM121.2 287l-87.28 35 29 72.4 87.28-35-29-72.4zM256 383l-78 104h156l-78-104z" fill="url(#delapouite-unbalanced-gradient-1)" transform="translate(51.2, 51.2) scale(0.8, 0.8) rotate(0, 256, 256) skewX(0) skewY(0)"></path></g></svg>